<?xml version="1.0" encoding="utf-8" ?>
<svg baseProfile="tiny" height="1000px" version="1.2" viewBox="0,0,1000,1000" width="1000px" xmlns="http://www.w3.org/2000/svg" xmlns:ev="http://www.w3.org/2001/xml-events" xmlns:xlink="http://www.w3.org/1999/xlink"><defs /><path d="M 200 300 C 200 150, 400 150, 500 300 C 600 150, 800 150, 800 300 L 800 800 L 200 800 Z" fill="#000000" /><polygon fill="#FFFFFF" points="200,800 300,500 470,500 470,800" /><polygon fill="#FFFFFF" points="800,800 700,500 530,500 530,800" /><rect fill="#000000" height="30" width="20" x="320" y="550" /><rect fill="#000000" height="30" width="20" x="320" y="600" /><rect fill="#000000" height="30" width="20" x="320" y="650" /><rect fill="#000000" height="30" width="20" x="370" y="550" /><rect fill="#000000" height="30" width="20" x="370" y="600" /><rect fill="#000000" height="30" width="20" x="370" y="650" /><rect fill="#000000" height="30" width="20" x="420" y="550" /><rect fill="#000000" height="30" width="20" x="420" y="600" /><rect fill="#000000" height="30" width="20" x="420" y="650" /><rect fill="#000000" height="30" width="20" x="580" y="550" /><rect fill="#000000" height="30" width="20" x="580" y="600" /><rect fill="#000000" height="30" width="20" x="580" y="650" /><rect fill="#000000" height="30" width="20" x="630" y="550" /><rect fill="#000000" height="30" width="20" x="630" y="600" /><rect fill="#000000" height="30" width="20" x="630" y="650" /><rect fill="#000000" height="30" width="20" x="680" y="550" /><rect fill="#000000" height="30" width="20" x="680" y="600" /><rect fill="#000000" height="30" width="20" x="680" y="650" /><text fill="#000000" font-family="Arial" font-size="50px" x="280" y="950">lovealleys.com</text></svg>