<?xml version="1.0" encoding="utf-8" ?>
<svg baseProfile="tiny" height="1000px" version="1.2" viewBox="0,0,1000,1000" width="1000px" xmlns="http://www.w3.org/2000/svg" xmlns:ev="http://www.w3.org/2001/xml-events" xmlns:xlink="http://www.w3.org/1999/xlink"><defs /><path d="M 200,200 Q 500,0 800,200 L 800,800 L 200,800 Z" fill="#000000" /><rect fill="#FFFFFF" height="50" width="30" x="250" y="300" /><rect fill="#FFFFFF" height="50" width="30" x="250" y="400" /><rect fill="#FFFFFF" height="50" width="30" x="250" y="500" /><rect fill="#FFFFFF" height="50" width="30" x="250" y="600" /><rect fill="#FFFFFF" height="50" width="30" x="350" y="300" /><rect fill="#FFFFFF" height="50" width="30" x="350" y="400" /><rect fill="#FFFFFF" height="50" width="30" x="350" y="500" /><rect fill="#FFFFFF" height="50" width="30" x="350" y="600" /><rect fill="#FFFFFF" height="50" width="30" x="450" y="300" /><rect fill="#FFFFFF" height="50" width="30" x="450" y="400" /><rect fill="#FFFFFF" height="50" width="30" x="450" y="500" /><rect fill="#FFFFFF" height="50" width="30" x="450" y="600" /><rect fill="#FFFFFF" height="50" width="30" x="550" y="300" /><rect fill="#FFFFFF" height="50" width="30" x="550" y="400" /><rect fill="#FFFFFF" height="50" width="30" x="550" y="500" /><rect fill="#FFFFFF" height="50" width="30" x="550" y="600" /><rect fill="#FFFFFF" height="50" width="30" x="650" y="300" /><rect fill="#FFFFFF" height="50" width="30" x="650" y="400" /><rect fill="#FFFFFF" height="50" width="30" x="650" y="500" /><rect fill="#FFFFFF" height="50" width="30" x="650" y="600" /><text fill="#000000" font-family="Arial" font-size="60px" x="250" y="950">lovealleys.com</text></svg>